<svg width="86" height="45" viewBox="0 0 86 45" fill="none" xmlns="http://www.w3.org/2000/svg">
<path d="M85.6568 34.9652C55.8201 32.7313 31.503 47.4856 0 44.6282V10.2882C29.7846 11.9507 55.5077 -1.81652 85.6568 0.729112V34.9652Z" fill="#E82629"/>
<path d="M10.206 41.3033C13.2782 41.2514 15.1007 39.3292 14.9444 36.5238C14.9444 34.134 14.9444 32.5754 14.9444 30.2376C14.9444 29.7181 14.8924 29.6662 14.7882 29.3025C14.6841 28.9388 14.5279 28.6791 14.3196 28.4193C14.1113 28.2115 13.7989 28.0037 13.3823 27.8478C13.0178 27.692 12.4971 27.5361 11.9243 27.4322C13.0178 27.1725 13.7989 26.8088 14.2154 26.2893C14.6841 25.7698 14.8924 25.0425 14.8924 24.0554C14.8924 21.4578 14.8924 20.107 14.8924 17.5095C14.8924 16.1068 14.5799 15.1716 13.903 14.5482C13.2261 13.9768 12.1847 13.717 10.7267 13.7689C8.12313 13.8728 6.87343 13.9248 4.26988 13.9248C4.21781 22.8085 4.11366 32.1079 4.00952 41.1475C6.35272 41.3553 7.81071 41.3553 10.206 41.3033ZM8.33142 17.6653C8.80006 17.6653 9.06041 17.6653 9.52905 17.6134C10.1018 17.6134 10.5184 17.7173 10.7267 17.9251C10.935 18.1848 11.0391 18.7563 11.0391 19.6914C11.0391 21.1461 11.0391 21.9773 11.0391 23.432C11.0391 23.9515 10.987 24.3671 10.935 24.6788C10.8829 24.9905 10.7788 25.2503 10.6746 25.4061C10.5705 25.562 10.4143 25.6659 10.1539 25.7698C9.94562 25.8217 9.68527 25.8217 9.37284 25.8217C8.95627 25.8217 8.69592 25.8217 8.27935 25.8217C8.27935 23.1202 8.27935 20.3668 8.33142 17.6653ZM8.22728 29.2505C8.80006 29.2505 9.11248 29.2505 9.63319 29.2505C10.206 29.2505 10.6225 29.4064 10.7788 29.6662C10.935 29.9779 11.0391 30.6013 11.0391 31.5884C11.0391 32.8352 11.0391 33.9781 11.0391 35.225C11.0391 35.7445 11.0391 36.1082 10.987 36.4199C10.935 36.7316 10.8829 36.9913 10.7788 37.1991C10.6746 37.355 10.5184 37.5109 10.3101 37.5628C10.1018 37.6148 9.84148 37.6667 9.47698 37.6667C9.00834 37.6667 8.69592 37.6667 8.22728 37.6667C8.1752 34.9652 8.22728 31.9001 8.22728 29.2505Z" fill="white"/>
<path d="M20.2557 28.5753C20.7764 28.5233 20.9847 28.4714 21.5575 28.4194C22.0261 28.3675 22.3906 28.4714 22.5989 28.6792C22.8072 28.9389 22.9113 29.3546 22.9113 30.0299C22.9113 32.5756 22.9113 36.8356 22.9113 40.3164C24.2652 40.1605 25.5669 39.9527 26.8687 39.7449C26.8687 36.2122 26.8687 31.6924 26.8687 29.2507C26.8687 29.1987 26.8687 29.1987 26.8687 29.1987C26.8687 27.4323 26.1397 26.6011 24.7338 26.6011C25.5669 26.1855 26.1397 25.7179 26.4001 25.1984C26.7125 24.6789 26.8166 23.8477 26.8166 22.7047C26.8166 20.0552 26.8166 18.8084 26.8166 16.1069C26.8166 15.3796 26.7646 14.8081 26.7125 14.4964C26.6604 14.1847 26.5042 13.873 26.2959 13.5613C25.9835 13.1456 25.5669 12.8339 25.0983 12.6781C24.8379 12.5742 24.5776 12.5222 24.2652 12.5222C23.9527 12.5222 23.6924 12.5222 23.432 12.5222C22.9634 12.5742 22.7551 12.6261 22.2865 12.6781C19.8391 13.0417 18.6415 13.1976 16.1942 13.4573C16.1421 21.5618 16.1942 32.4197 16.1421 41.0437C17.4959 40.9398 18.7977 40.7839 20.0995 40.68C20.2557 36.6278 20.2557 31.6924 20.2557 28.5753ZM20.2557 16.7303C20.7764 16.6784 21.0888 16.6264 21.6095 16.5744C22.1823 16.5225 22.5468 16.6264 22.703 16.8862C22.8592 17.1979 22.9634 19.0162 22.9634 20.0033C22.9634 20.1591 22.9634 20.263 22.9634 20.4189C22.9113 21.5099 22.9113 22.445 22.8592 23.484C22.8592 24.2633 22.3906 24.7309 21.4013 24.8348C20.9326 24.8867 20.7243 24.9387 20.2557 24.9906C20.2557 22.393 20.2557 19.3798 20.2557 16.7303Z" fill="white"/>
<path d="M31.9196 34.082C33.5859 33.7703 34.419 33.6144 36.1373 33.2507C36.3456 34.9651 36.5018 36.16 36.7101 37.8225C38.064 37.5627 39.3658 37.251 40.7196 36.9393C39.7303 28.0556 38.6888 18.7043 37.6474 9.82056C35.2001 10.3401 32.8569 10.8076 30.4095 11.2752C29.4202 20.5226 28.3788 30.3414 27.3894 39.5888C28.7433 39.381 30.045 39.1213 31.3989 38.8615C31.6072 37.1471 31.7113 35.8483 31.9196 34.082ZM33.8462 14.4962L34.1066 14.4443C34.6794 19.3797 35.2521 24.3151 35.7729 29.2505C34.419 29.5102 33.7421 29.6661 32.3882 29.9258C32.8569 24.7826 33.3776 19.6394 33.8462 14.4962Z" fill="white"/>
<path d="M45.1978 24.0035C46.2392 23.7957 46.7599 23.6918 47.8534 23.432C47.8534 26.653 47.8534 31.5365 47.8534 35.3809C49.1552 35.0692 50.509 34.8094 51.8108 34.4977C51.8628 25.7698 51.8628 15.2236 51.9149 6.91138C50.3007 7.22309 49.5197 7.37894 47.9055 7.69065C47.9055 11.4831 47.9055 15.5353 47.8534 19.3278C46.812 19.5356 46.2913 19.6395 45.1978 19.8993C45.1978 16.1068 45.1978 12.0546 45.1978 8.26212C43.5836 8.57383 42.8025 8.78164 41.1883 9.09335C41.1883 17.4056 41.1362 28.1076 41.1362 36.8355C42.438 36.5238 43.7919 36.2641 45.0936 35.9523C45.1457 32.1079 45.1457 27.2245 45.1978 24.0035Z" fill="white"/>
<path d="M57.1741 17.5094H57.2262C58.2156 23.0163 58.9446 27.5361 59.8298 32.991C60.4546 32.8871 61.0795 32.7832 61.7564 32.6793C62.6937 27.1204 63.3706 22.8085 64.6203 16.6262H64.6724C64.6203 21.5097 64.6203 27.1724 64.5682 32.2637C65.87 32.0558 67.2238 31.9 68.5256 31.7441C68.5777 23.0682 68.6818 12.8857 68.7339 4.52148C66.8073 4.67734 65.87 4.78124 63.9434 5.041C62.9019 9.82055 61.9126 14.756 60.8712 19.5355C59.8818 15.0677 58.8925 10.392 57.9031 5.92418C56.0286 6.23589 55.0913 6.39174 53.1647 6.7554C53.1126 15.1716 53.1126 25.5619 53.0605 34.2898C54.4144 34.03 55.7682 33.7183 57.1221 33.4585C57.1221 28.3153 57.1741 22.3928 57.1741 17.5094Z" fill="white"/>
<path d="M73.5242 26.8608C75.1905 26.7569 76.0237 26.7049 77.6899 26.7049C77.8982 28.4713 78.0024 29.4064 78.1586 31.1208C79.4603 31.1208 80.8142 31.1208 82.116 31.1728C81.2308 22.1851 80.2935 13.1455 79.3562 4.10596C76.9609 4.10596 74.5136 4.10596 72.1704 4.26181C71.129 13.3533 70.0876 22.5488 69.0461 31.6923C70.3479 31.5364 71.6497 31.4325 73.0035 31.3286C73.2118 29.6142 73.316 28.6271 73.5242 26.8608ZM75.6071 7.58672H75.8154C76.3361 12.7299 76.8568 17.5614 77.3775 22.7046C76.0237 22.7046 75.3467 22.7566 73.9929 22.8085C74.5136 17.6134 75.0343 12.7819 75.6071 7.58672Z" fill="white"/>
</svg>
