<?xml version="1.0" ?><!-- Uploaded to: SVG Repo, www.svgrepo.com, Generator: SVG Repo Mixer Tools -->
<svg fill="#000000" width="800px" height="800px" viewBox="0 0 64 64" data-name="Layer 1" id="Layer_1" xmlns="http://www.w3.org/2000/svg"><path d="M52,61a1,1,0,0,0,1-1V6a3,3,0,0,0-6,0V60a1,1,0,0,0,1,1Zm-3-2V41h2V59ZM50,5a1.0009,1.0009,0,0,1,1,1V39H49V6A1.0009,1.0009,0,0,1,50,5Z"/><path d="M58,3a3.0033,3.0033,0,0,0-3,3V60a1,1,0,0,0,1,1h4a1,1,0,0,0,1-1V6A3.0033,3.0033,0,0,0,58,3Zm0,2a1.0009,1.0009,0,0,1,1,1V39H57V6A1.0009,1.0009,0,0,1,58,5ZM57,59V41h2V59Z"/><path d="M32.4857,23.0246a9.01,9.01,0,0,0-16.9719,0A13.0054,13.0054,0,0,0,3,36V48a9.01,9.01,0,0,0,8,8.941v1.0736A2.9887,2.9887,0,0,0,13.9858,61H34.0142A2.9887,2.9887,0,0,0,37,58.0146V56.941A9.01,9.01,0,0,0,45,48V36A13.0055,13.0055,0,0,0,32.4857,23.0246ZM24,19a6.9881,6.9881,0,0,1,6.37,4.1123,14.0574,14.0574,0,0,0-2.0477.4292,4.9766,4.9766,0,0,0-8.6417-.0028,15.0986,15.0986,0,0,0-2.05-.4254A6.9881,6.9881,0,0,1,24,19Zm3.7515,11.4443A7.0352,7.0352,0,0,1,38.9287,35h-2.03a5.0286,5.0286,0,0,0-8.4051-2.5566A15.1591,15.1591,0,0,0,27.7515,30.4443ZM43,39H5V37H43ZM20.8989,35a5.01,5.01,0,0,0-9.7978,0h-2.03c1.2681-7.9372,12.5921-7.9317,13.8574,0Zm-2.07,0H13.1714A3.0136,3.0136,0,0,1,18.8286,35Zm10.3428,0a3.0136,3.0136,0,0,1,5.6572,0ZM26.3985,24.2827a14.1429,14.1429,0,0,0-2.398,1.4859,14.305,14.305,0,0,0-2.4307-1.503,2.99,2.99,0,0,1,4.86,0C26.4189,24.2708,26.4092,24.2775,26.3985,24.2827ZM16,25A11.075,11.075,0,0,1,26.9363,35H24.941C23.5135,24.4017,8.4825,24.4094,7.059,35H5.0449A11.0153,11.0153,0,0,1,16,25ZM35,58.0146A.9871.9871,0,0,1,34.0142,59H13.9858A.9871.9871,0,0,1,13,58.0146V57H35ZM36,55H12a7.0081,7.0081,0,0,1-7-7V41H43v7A7.0081,7.0081,0,0,1,36,55Zm4.941-20c-.5862-6.6533-8.8049-10.3805-14.1873-6.2941a17.07,17.07,0,0,0-1.2535-1.56A11.0252,11.0252,0,0,1,42.9551,35Z"/></svg>