<?xml version="1.0" ?><!-- Uploaded to: SVG Repo, www.svgrepo.com, Generator: SVG Repo Mixer Tools -->
<svg fill="#000000" width="800px" height="800px" viewBox="0 0 64 64" data-name="Layer 1" id="Layer_1" xmlns="http://www.w3.org/2000/svg"><path d="M60,39H45V30.6094A3.6134,3.6134,0,0,0,41.3906,27H34.6094A3.5913,3.5913,0,0,0,32,28.129,3.5913,3.5913,0,0,0,29.3906,27H22.6094A3.6134,3.6134,0,0,0,19,30.6094V39H4a1,1,0,0,0-1,1,9.01,9.01,0,0,0,8,8.941V50a3.0033,3.0033,0,0,0,3,3H50a3.0033,3.0033,0,0,0,3-3V48.941A9.01,9.01,0,0,0,61,40,1,1,0,0,0,60,39ZM34.6094,29h6.7812A1.6109,1.6109,0,0,1,43,30.6094V39H33V30.6094A1.6109,1.6109,0,0,1,34.6094,29ZM21,30.6094A1.6109,1.6109,0,0,1,22.6094,29h6.7812A1.6109,1.6109,0,0,1,31,30.6094V39H21ZM51,50a1.0006,1.0006,0,0,1-1,1H14a1.0006,1.0006,0,0,1-1-1V49H51Zm1-3H12a7.0106,7.0106,0,0,1-6.9287-6H58.9287A7.0106,7.0106,0,0,1,52,47Z"/><path d="M60,19H6a3,3,0,0,0,0,6H60a1,1,0,0,0,1-1V20A1,1,0,0,0,60,19ZM5,22a1.0006,1.0006,0,0,1,1-1H39v2H6A1.0006,1.0006,0,0,1,5,22Zm54,1H41V21H59Z"/><path d="M60,11H6a3,3,0,0,0,0,6H60a1,1,0,0,0,1-1V12A1,1,0,0,0,60,11ZM5,14a1.0006,1.0006,0,0,1,1-1H39v2H6A1.0006,1.0006,0,0,1,5,14Zm54,1H41V13H59Z"/><path d="M28,31H24a1,1,0,0,0-1,1v4a1,1,0,0,0,1,1h4a1,1,0,0,0,1-1V32A1,1,0,0,0,28,31Zm-1,4H25V33h2Z"/><path d="M36,37h4a1,1,0,0,0,1-1V32a1,1,0,0,0-1-1H36a1,1,0,0,0-1,1v4A1,1,0,0,0,36,37Zm1-4h2v2H37Z"/></svg>