<?xml version="1.0" ?><!-- Uploaded to: SVG Repo, www.svgrepo.com, Generator: SVG Repo Mixer Tools -->
<svg fill="#000000" width="800px" height="800px" viewBox="0 0 64 64" data-name="Layer 1" id="Layer_1" xmlns="http://www.w3.org/2000/svg"><path d="M39,19.5254a3.4529,3.4529,0,0,0-.2993-1.4111C38.3812,17.5365,35.45,10.4209,35,10.1834V6a3,3,0,0,0-6,0v4.1832c-.4345.2109-3.3953,7.38-3.7,7.931a3.4836,3.4836,0,0,0,2.0383,4.679,7.0471,7.0471,0,0,0-.19,10.2408A2.48,2.48,0,0,0,25,35.4844v9.0312A2.487,2.487,0,0,0,27.4844,47H29V60a1,1,0,0,0,1,1h4a1,1,0,0,0,1-1V47h1.5156A2.487,2.487,0,0,0,39,44.5156V35.4844a2.48,2.48,0,0,0-2.1479-2.45,7.047,7.047,0,0,0-.19-10.2407A3.4684,3.4684,0,0,0,39,19.5254ZM31,6a1,1,0,0,1,2,0V9.0576a7.5661,7.5661,0,0,0-2,0Zm2,53H31V47h2Zm4-23.5156v9.0312A.4853.4853,0,0,1,36.5156,45H27.4844A.4853.4853,0,0,1,27,44.5156V35.4844A.4853.4853,0,0,1,27.4844,35H30c.9967.002,3.0035-.0015,4,0h2.5156A.4853.4853,0,0,1,37,35.4844ZM37,28c-.2288,6.5877-9.7722,6.5862-10,0C27.2288,21.4123,36.7722,21.4138,37,28Zm-1.4746-7c-2.1982,0-4.8527,0-7.0508,0a1.482,1.482,0,0,1-1.3471-2.0733L30.26,11.876a1.4515,1.4515,0,0,1,.3391-.458,1.9005,1.9005,0,0,1,.6663-.3678,4.5011,4.5011,0,0,1,1.4686,0,1.9029,1.9029,0,0,1,.656.3589c.1471-.3044,3.3855,7.42,3.4828,7.5177A1.4826,1.4826,0,0,1,35.5254,21Z"/><path d="M45,6v4.1832c-.4345.2109-3.3953,7.38-3.7,7.931a3.4836,3.4836,0,0,0,2.0383,4.679,7.0471,7.0471,0,0,0-.19,10.2408A2.48,2.48,0,0,0,41,35.4844v9.0312A2.487,2.487,0,0,0,43.4844,47H45V60a1,1,0,0,0,1,1h4a1,1,0,0,0,1-1V47h1.5156A2.487,2.487,0,0,0,55,44.5156V35.4844a2.48,2.48,0,0,0-2.1479-2.45,7.047,7.047,0,0,0-.19-10.2407,3.4843,3.4843,0,0,0,2.0386-4.6791c-.3158-.572-3.2536-7.697-3.7006-7.9308V6A3,3,0,0,0,45,6Zm4,53H47V47h2Zm4-23.5156v9.0312A.4853.4853,0,0,1,52.5156,45H43.4844A.4853.4853,0,0,1,43,44.5156V35.4844A.4853.4853,0,0,1,43.4844,35H46c.9967.002,3.0035-.0015,4,0h2.5156A.4853.4853,0,0,1,53,35.4844ZM53,28c-.2288,6.5877-9.7722,6.5862-10,0C43.2288,21.4123,52.7722,21.4138,53,28Zm-.127-9.0732A1.4826,1.4826,0,0,1,51.5254,21H48c-.8644-.003-2.6707.0022-3.5254,0a1.482,1.482,0,0,1-1.3471-2.0733L46.26,11.876a1.4519,1.4519,0,0,1,.339-.4579,1.9,1.9,0,0,1,.6664-.3679,4.5011,4.5011,0,0,1,1.4686,0,1.9029,1.9029,0,0,1,.656.3589C49.5389,11.1142,52.7746,18.8222,52.873,18.9268ZM47,6a1,1,0,0,1,2,0V9.0576a7.5661,7.5661,0,0,0-2,0Z"/><path d="M23,19.5254a3.4529,3.4529,0,0,0-.2993-1.4111c-.32-.5778-3.2511-7.6934-3.7007-7.9309V6a3,3,0,0,0-6,0v4.1832c-.4345.2109-3.3953,7.38-3.7,7.931a3.4836,3.4836,0,0,0,2.0383,4.679,7.0471,7.0471,0,0,0-.19,10.2408A2.48,2.48,0,0,0,9,35.4844v9.0312A2.487,2.487,0,0,0,11.4844,47H13V60a1,1,0,0,0,1,1h4a1,1,0,0,0,1-1V47h1.5156A2.487,2.487,0,0,0,23,44.5156V35.4844a2.48,2.48,0,0,0-2.1479-2.45,7.047,7.047,0,0,0-.19-10.2407A3.4684,3.4684,0,0,0,23,19.5254ZM15,6a1,1,0,0,1,2,0V9.0576a7.5661,7.5661,0,0,0-2,0Zm2,53H15V47h2Zm4-23.5156v9.0312A.4853.4853,0,0,1,20.5156,45H11.4844A.4853.4853,0,0,1,11,44.5156V35.4844A.4853.4853,0,0,1,11.4844,35H14c.9967.002,3.0035-.0015,4,0h2.5156A.4853.4853,0,0,1,21,35.4844ZM21,28c-.2288,6.5877-9.7722,6.5862-10,0C11.2288,21.4123,20.7722,21.4138,21,28Zm-1.4746-7c-2.1982,0-4.8527,0-7.0508,0a1.482,1.482,0,0,1-1.3471-2.0733L14.26,11.876a1.4506,1.4506,0,0,1,.3392-.458,1.8991,1.8991,0,0,1,.6662-.3678,4.5011,4.5011,0,0,1,1.4686,0,1.9029,1.9029,0,0,1,.656.3589c.1471-.3044,3.3855,7.42,3.4828,7.5177A1.4826,1.4826,0,0,1,19.5254,21Z"/></svg>