<?xml version="1.0" ?><!-- Uploaded to: SVG Repo, www.svgrepo.com, Generator: SVG Repo Mixer Tools -->
<svg fill="#000000" width="800px" height="800px" viewBox="0 0 64 64" data-name="Layer 1" id="Layer_1" xmlns="http://www.w3.org/2000/svg"><path d="M25.72,43a5.0157,5.0157,0,0,0-3.3056,1.1953,3.22,3.22,0,0,1-4.24-.0006A5.0254,5.0254,0,0,0,14.8662,43a1,1,0,0,0,0,2,3.0712,3.0712,0,0,1,2.1215.8052,5.232,5.232,0,0,0,6.6133-.0007A3.0672,3.0672,0,0,1,25.72,45,1,1,0,0,0,25.72,43Z"/><path d="M31.1479,33a3.07,3.07,0,0,1-2.1206-.8052,5.231,5.231,0,0,0-6.6127.0007A3.0672,3.0672,0,0,1,20.2954,33a1,1,0,0,0,0,2c2.9241.0617,3.0077-1.9012,5.4248-2,2.4169.0988,2.5045,2.0623,5.4278,2A1,1,0,0,0,31.1479,33Z"/><path d="M49.1479,19a3.07,3.07,0,0,1-2.1206-.8052,5.231,5.231,0,0,0-6.6127.0007A3.0672,3.0672,0,0,1,38.2954,19a1,1,0,0,0,0,2c2.9241.0617,3.0077-1.9012,5.4248-2,2.4169.0988,2.5045,2.0623,5.4278,2A1,1,0,0,0,49.1479,19Z"/><path d="M60,13a3.0667,3.0667,0,0,1-2.12-.8047,5.2223,5.2223,0,0,0-6.6128,0,3.2187,3.2187,0,0,1-4.24-.0008,5.2284,5.2284,0,0,0-6.6127.0008A3.0672,3.0672,0,0,1,38.2954,13c-2.4175-.0988-2.5049-2.0622-5.4292-2-2.9246-.0625-3.0145,1.9018-5.433,2C25.0091,12.9,24.93,10.9387,22,11a1,1,0,0,0-1,1V26.9308c-2.76.536-3.0774-2.0418-6.1338-1.9307-2.9264-.0609-3.0132,1.9007-5.433,2C7.0071,26.8989,6.93,24.94,4,25a1,1,0,0,0-1,1V50a1,1,0,0,0,1,1,3.076,3.076,0,0,1,2.1235.8052,5.2361,5.2361,0,0,0,6.6187,0,3.2254,3.2254,0,0,1,4.2456,0,5.222,5.222,0,0,0,6.6133-.0008,3.22,3.22,0,0,1,4.24.0008,5.2286,5.2286,0,0,0,6.6133-.0008,3.2214,3.2214,0,0,1,4.24.0008A5.0207,5.0207,0,0,0,42,53a1,1,0,0,0,1-1V37.0749c2.7731-.5518,3.0839,2.0334,6.148,1.925,2.9245.0616,3.008-1.9011,5.4257-2,2.4167.0992,2.5033,2.062,5.4263,2a1,1,0,0,0,1-1V14A1,1,0,0,0,60,13ZM39.88,50.1953a5.2228,5.2228,0,0,0-6.6128,0,3.219,3.219,0,0,1-4.24-.0008,5.229,5.229,0,0,0-6.6127.0008A3.0672,3.0672,0,0,1,20.2954,51c-2.4179-.0988-2.5046-2.0621-5.4292-2-2.9241-.0626-3.0148,1.9019-5.433,2C7.3683,50.9748,7.0993,49.4169,5,49.0869V39.1615a4.1347,4.1347,0,0,1,1.1235.6437,5.24,5.24,0,0,0,6.6187,0A3.0772,3.0772,0,0,1,14.8662,39a1,1,0,0,0,1-1c-.2621-2.1749-3.8657-.2949-4.3095.1948a3.2294,3.2294,0,0,1-4.2476,0A5.2946,5.2946,0,0,0,5,37.0921V27.1455a4.0794,4.0794,0,0,1,1.1235.66,5.2336,5.2336,0,0,0,6.6187,0A3.0772,3.0772,0,0,1,14.8662,27c2.4151.0976,2.5074,2.0626,5.4293,2a5.0348,5.0348,0,0,0,3.3056-1.1952A3.1126,3.1126,0,0,1,25.72,27c2.4178.099,2.5038,2.062,5.4278,2,2.92.063,3.0114-1.9021,5.4257-2,2.061.0257,2.33,1.5831,4.4263,1.9132v15.925c-1.5745-.6628-2.0393-1.8413-4.4263-1.838a1,1,0,0,0,0,2c2.0565.0272,2.3329,1.5793,4.4262,1.9077V50.854A4.0846,4.0846,0,0,1,39.88,50.1953Zm18-14a5.2273,5.2273,0,0,0-6.6128,0,3.1949,3.1949,0,0,1-4.24-.0007A5.2913,5.2913,0,0,0,43,35.0444V28a1,1,0,0,0-1-1c-2.4126-.097-2.5061-2.0631-5.4263-2-2.9248-.0617-3.0077,1.9012-5.4257,2a3.07,3.07,0,0,1-2.1207-.8053A5.0227,5.0227,0,0,0,25.72,25a4.9181,4.9181,0,0,0-2.72.7808V13.1455a4.0819,4.0819,0,0,1,1.124.66,5.2329,5.2329,0,0,0,6.6182,0A3.0772,3.0772,0,0,1,32.8662,13c2.4151.0976,2.5074,2.0626,5.4293,2,2.923.0621,3.0083-1.9013,5.4247-2,2.4178.0991,2.5038,2.0621,5.4278,2,2.92.063,3.0114-1.9021,5.4257-2,2.061.0257,2.33,1.5831,4.4263,1.9132v15.925c-1.5745-.6628-2.0393-1.8413-4.4263-1.838a1,1,0,0,0,0,2c2.0565.0272,2.3329,1.5793,4.4262,1.9077V36.854A4.0846,4.0846,0,0,1,57.88,36.1953Z"/></svg>